<svg xmlns="http://www.w3.org/2000/svg" width="100" height="100" style="width:100%;height:100%;transform:translate3d(0,0,0)"><defs><clipPath id="a"><path d="M0 0h100v100H0z"/></clipPath></defs><g clip-path="url(#a)"><path fill="#333" d="M15.5 0c0 1.104-.896 2-2 2h-27a2.001 2.001 0 0 1 0-4h27c1.104 0 2 .896 2 2z" style="display:block" transform="matrix(2 0 0 2 51 29.808)"/><path fill="#333" d="M15.5 0c0 1.104-.896 2-2 2h-27a2.001 2.001 0 0 1 0-4h27c1.104 0 2 .896 2 2z" style="display:block" transform="matrix(2 0 0 2 51 50)"/><path fill="#333" d="M15.5 0c0 1.104-.896 2-2 2h-27a2.001 2.001 0 0 1 0-4h27c1.104 0 2 .896 2 2z" style="display:block" transform="matrix(2 0 0 2 51 70.192)"/></g></svg>