<svg xmlns="http://www.w3.org/2000/svg" width="77" height="66" fill="none"><path fill="#FFF1DA" d="M27 48c0 9.9411 8.0589 18 18 18h27c2.7614 0 5-2.2386 5-5V27c0-5.5228-4.4772-10-10-10H32c-2.7614 0-5 2.2386-5 5v26Z"/><path fill="#B6C4CF" d="M50 27.8482v-5.6964c0-1.1167-.9053-2.0219-2.0219-2.0219h-2.1787a2.02 2.02 0 0 1-1.9179-1.3851 19.757 19.757 0 0 0-1.1063-2.6685c-.3921-.7796-.242-1.7221.375-2.3392l1.5414-1.5414c.7897-.7897.7897-2.0698 0-2.8595l-4.0279-4.028c-.7897-.7896-2.0699-.7896-2.8595 0l-1.5414 1.5415c-.6171.6171-1.5596.7671-2.3392.375a19.7542 19.7542 0 0 0-2.6685-1.1063A2.0202 2.0202 0 0 1 29.87 4.2005V2.0219C29.87.9052 28.9648 0 27.8481 0h-5.6964c-1.1167 0-2.0219.9052-2.0219 2.022v2.1786c0 .8711-.5582 1.644-1.3852 1.918a19.7609 19.7609 0 0 0-2.6685 1.1062c-.7795.3921-1.722.242-2.3391-.375l-1.5414-1.5415c-.7897-.7896-2.0699-.7896-2.8595 0l-4.0278 4.028c-.7896.7897-.7896 2.0698 0 2.8595l1.5415 1.5414c.617.6171.767 1.5596.375 2.3392a19.7502 19.7502 0 0 0-1.1063 2.6685 2.02 2.02 0 0 1-1.1868 1.2483c-.2285.0887-.375.2373-.6305.2373H2.1225c-1.1167 0-2.022.9052-2.022 2.0219v5.4952c0 1.1167.9053 2.0219 2.022 2.0219h2.1787c.8711 0 1.644.6588 1.9179 1.4857.305.9213.6757 1.8125 1.1062 2.6685.3922.7796.242 1.7221-.375 2.3392l-1.4408 1.5414c-.7896.7897-.7896 2.0698 0 2.8595l3.8268 3.8267c.7896.7897 2.0698.7897 2.8595 0l1.5414-1.5414c.617-.6171 1.5596-.7671 2.3391-.375.856.4306 1.9485.9019 2.8698 1.2069a2.0202 2.0202 0 0 1 1.3851 1.9179v2.1787c0 1.1167.9052 2.0219 2.0219 2.0219h5.3946c1.1167 0 2.0219-.9052 2.0219-2.0219v-2.1787c0-.2555.1486-.402.2373-.6305a2.0201 2.0201 0 0 1 1.2483-1.1868 19.7618 19.7618 0 0 0 2.6685-1.1062c.7796-.3922 1.7221-.2421 2.3392.3749l1.5414 1.5414c.7896.7897 2.0698.7897 2.8595 0l4.0279-4.0279c.7897-.7897.7897-2.0698 0-2.8595l-1.5414-1.5414c-.617-.6171-.7671-1.5596-.375-2.3392a19.757 19.757 0 0 0 1.1063-2.6685 2.0202 2.0202 0 0 1 1.9179-1.3851h2.1786c1.1166 0 2.0219-.9052 2.0219-2.0219Z"/><path fill="#9FACBA" d="M30.007 45.0684a2.0228 2.0228 0 0 0-.1368.7314v2.178c0 1.1167-.9054 2.0222-2.0221 2.0222h-5.6962c-1.1167 0-2.0221-.9055-2.0221-2.0222v-2.178a2.021 2.021 0 0 0-1.3853-1.9186 19.7567 19.7567 0 0 1-2.668-1.1056c-.7797-.3923-1.7224-.2424-2.3391.3743l-1.5412 1.5412c-.7898.7897-2.0704.7897-2.8602 0l-4.0282-4.0272c-.7887-.7897-.7887-2.0704 0-2.8601l1.5423-1.5413c.6167-.6167.7666-1.5593.3742-2.339a19.7674 19.7674 0 0 1-1.1056-2.668 2.0207 2.0207 0 0 0-1.9185-1.3853h-2.178C.9053 29.8702 0 28.9648 0 27.8481v-5.6962c0-1.1167.9054-2.0222 2.0221-2.0222h2.1781c.2555 0 .503-.0482.7314-.1368-.002.1258-.003.2525-.003.3793 0 13.6408 11.0583 24.6992 24.6992 24.6992.1267 0 .2535-.001.3792-.003Z"/><path fill="#9FACBA" d="M25 41.5996c9.1677 0 16.5996-7.4319 16.5996-16.5996S34.1677 8.4004 25 8.4004 8.4004 15.8323 8.4004 25 15.8323 41.5996 25 41.5996Z"/><path fill="#F8F7F7" d="M24.9999 38.0784c7.223 0 13.0784-5.8554 13.0784-13.0784 0-7.2231-5.8554-13.0785-13.0784-13.0785-7.2231 0-13.0785 5.8554-13.0785 13.0785 0 7.223 5.8554 13.0784 13.0785 13.0784Z"/></svg>