<svg width="61" height="61" viewBox="0 0 61 61" fill="none" xmlns="http://www.w3.org/2000/svg">
<g filter="url(#filter0_d_4_2)">
<path fill-rule="evenodd" clip-rule="evenodd" d="M30.5 49C41.8218 49 51 39.8218 51 28.5C51 17.1782 41.8218 8 30.5 8C19.1782 8 10 17.1782 10 28.5C10 39.8218 19.1782 49 30.5 49Z" fill="white"/>
</g>
<path d="M35.2913 34.958H26.7087C26.2666 34.958 25.8427 34.7824 25.5301 34.4698C25.2176 34.1573 25.042 33.7334 25.042 33.2913V24.7087C25.042 24.2666 25.2176 23.8427 25.5301 23.5301C25.8427 23.2176 26.2666 23.042 26.7087 23.042H35.2913C35.7334 23.042 36.1573 23.2176 36.4698 23.5301C36.7824 23.8427 36.958 24.2666 36.958 24.7087V33.2913C36.958 33.7334 36.7824 34.1573 36.4698 34.4698C36.1573 34.7824 35.7334 34.958 35.2913 34.958ZM26.7087 23.7087C26.4434 23.7087 26.1891 23.814 26.0016 24.0016C25.814 24.1891 25.7087 24.4434 25.7087 24.7087V33.2913C25.7087 33.5565 25.814 33.8109 26.0016 33.9984C26.1891 34.186 26.4434 34.2913 26.7087 34.2913H35.2913C35.5565 34.2913 35.8109 34.186 35.9984 33.9984C36.186 33.8109 36.2913 33.5565 36.2913 33.2913V24.7087C36.2913 24.4434 36.186 24.1891 35.9984 24.0016C35.8109 23.814 35.5565 23.7087 35.2913 23.7087H26.7087Z" fill="black"/>
<path d="M30.9999 32.0627C30.3942 32.062 29.8022 31.8818 29.2989 31.5448C28.7955 31.2077 28.4034 30.729 28.1721 30.1692C27.9408 29.6093 27.8806 28.9935 27.9993 28.3995C28.1179 27.8054 28.41 27.2599 28.8386 26.8319C29.2672 26.4038 29.8131 26.1124 30.4073 25.9946C31.0015 25.8767 31.6172 25.9377 32.1768 26.1697C32.7363 26.4018 33.2145 26.7945 33.5509 27.2983C33.8873 27.8021 34.0667 28.3943 34.0666 29C34.0655 29.8127 33.742 30.5917 33.167 31.1659C32.592 31.7402 31.8126 32.0627 30.9999 32.0627ZM30.9999 26.6C30.5262 26.6007 30.0633 26.7417 29.6697 27.0053C29.2761 27.2689 28.9694 27.6433 28.7884 28.0811C28.6074 28.5189 28.5602 29.0005 28.6528 29.4651C28.7454 29.9297 28.9736 30.3564 29.3086 30.6914C29.6436 31.0264 30.0703 31.2546 30.5349 31.3472C30.9995 31.4397 31.4811 31.3926 31.9189 31.2116C32.3567 31.0306 32.731 30.7239 32.9946 30.3303C33.2582 29.9367 33.3993 29.4738 33.3999 29C33.3999 28.3635 33.1471 27.7531 32.697 27.303C32.2469 26.8529 31.6365 26.6 30.9999 26.6Z" fill="black"/>
<path d="M34.4667 26.27C34.8625 26.27 35.1833 25.9491 35.1833 25.5533C35.1833 25.1575 34.8625 24.8367 34.4667 24.8367C34.0709 24.8367 33.75 25.1575 33.75 25.5533C33.75 25.9491 34.0709 26.27 34.4667 26.27Z" fill="black"/>
<defs>
<filter id="filter0_d_4_2" x="0" y="0" width="61" height="61" filterUnits="userSpaceOnUse" color-interpolation-filters="sRGB">
<feFlood flood-opacity="0" result="BackgroundImageFix"/>
<feColorMatrix in="SourceAlpha" type="matrix" values="0 0 0 0 0 0 0 0 0 0 0 0 0 0 0 0 0 0 127 0" result="hardAlpha"/>
<feOffset dy="2"/>
<feGaussianBlur stdDeviation="5"/>
<feColorMatrix type="matrix" values="0 0 0 0 0 0 0 0 0 0 0 0 0 0 0 0 0 0 0.1 0"/>
<feBlend mode="normal" in2="BackgroundImageFix" result="effect1_dropShadow_4_2"/>
<feBlend mode="normal" in="SourceGraphic" in2="effect1_dropShadow_4_2" result="shape"/>
</filter>
</defs>
</svg>
