<svg xmlns="http://www.w3.org/2000/svg" width="92" height="78" fill="none"><path fill="#FFF1DA" d="M92 60c0 9.9411-8.0589 18-18 18H47c-2.7614 0-5-2.2386-5-5V39c0-5.5228 4.4772-10 10-10h35c2.7614 0 5 2.2386 5 5v26Z"/><path fill="#407093" d="m23.527 50.6574-1.8881-.9039-11.2167 16.5847h12.518l1.2062-.7866V51.225l-.6194-.5676Z"/><path fill="#365E7D" d="m21.8095 49.8353-4.2451-2.0323h-.8L4.7606 65.5516l.7146.7866h5.1731l11.1612-16.5029Z"/><path fill="#4A80AA" d="M26.4 65.5515H9.8475c-.752 0-1.3615.6095-1.3615 1.3616v1.7254c0 .7518.6094 1.3613 1.3613 1.3614H26.4c.752 0 1.3616-.6095 1.3616-1.3614v-1.7254c0-.7521-.6096-1.3616-1.3616-1.3616Z"/><path fill="#407093" d="M8.7677 68.6385v-1.7254c0-.752.6097-1.3616 1.3616-1.3616H1.3616C.6096 65.5515 0 66.161 0 66.9131v1.7254c0 .7519.6096 1.3614 1.3616 1.3614h8.7676c-.752 0-1.3615-.6095-1.3615-1.3614Z"/><path fill="#4A80AA" d="M21.2397 39.9827a7.9466 7.9466 0 0 0-.7974 3.4763c0 3.4069 2.1333 6.3131 5.1359 7.4628a7.7983 7.7983 0 0 0 3.3394-2.0917v-1.7408l-7.6779-7.1066Z"/><path fill="#407093" d="M20.5767 43.4863c0-1.2179.2816-2.369.7803-3.3954l-2.4543-2.2717h-.9958c-1.506 1.4207-2.4474 3.4333-2.4474 5.667 0 4.3031 3.4882 7.7913 7.7913 7.7913a7.7628 7.7628 0 0 0 2.557-.4326c-3.045-1.0593-5.2311-3.9528-5.2311-7.3586Z"/><path fill="#FFD086" d="M65.812.9247c-1.2329-1.233-3.2319-1.233-4.4647 0l-3.0128 3.0129v.3818l3.7604 3.9201.7042.1627 3.0128-3.0128c1.233-1.2328 1.233-3.2318.0001-4.4647Z"/><path fill="#FFC365" d="M66.6449 2.415c-.1315-.5458-.4069-1.0641-.8329-1.4903-1.2329-1.233-3.2319-1.233-4.4647 0l-3.0128 3.0129v.3818l1.9937 2.0784c1.1887-1.2369 2.3688-2.4575 2.9757-3.0644 1.0117-1.0116 2.4894-1.0194 3.341-.9185Z"/><path fill="#365E7D" d="M55.4975 8.9503a1.0876 1.0876 0 0 1-.1048-.0052L20.5763 5.518c-.5806-.0572-1.0049-.5741-.9477-1.1547.0571-.5807.5743-1.0047 1.1547-.948l34.8164 3.427c.5805.057 1.0049.574.9478 1.1547-.0538.5456-.5133.9532-1.05.9532Z"/><path fill="#407093" d="M30.6459 15.4681c-.4685 0-.8966-.3142-1.021-.7886-.148-.5644.1895-1.1418.7538-1.2899l24.85-6.518c.5643-.1479 1.1419.1894 1.2898.7538.1481.5642-.1893 1.1417-.7537 1.2898l-24.8501 6.5181a1.0625 1.0625 0 0 1-.2688.0348Z"/><path fill="#365E7D" d="M62.2465 47.136c-.5372 0-.9967-.4079-1.0501-.9537l-3.4057-34.8378c-.0567-.5805.3679-1.0973.9486-1.1542.5806-.0541 1.0973.3681 1.154.9487l3.4057 34.8378c.0567.5805-.3679 1.0973-.9486 1.1542a1.1375 1.1375 0 0 1-.1039.005Z"/><path fill="#407093" d="M52.2252 37.2475a1.0656 1.0656 0 0 1-.2714-.0355c-.5639-.1496-.8998-.7279-.7503-1.2919l6.6141-24.946c.1494-.5641.7276-.8995 1.2917-.7505.5639.1496.8999.7279.7503 1.2919l-6.614 24.946c-.1254.4733-.5529.786-1.0204.786Z"/><path fill="#FFC365" d="m55.3069 6.9643 3.0205-3.0205 4.464 4.464-3.0205 3.0206-4.464-4.4641Z"/><path fill="#FFA90F" d="M57.6009 9.2457c.726-.7601 1.8596-1.9457 2.9561-3.0857l-2.2223-2.2225-3.0211 3.021 2.2873 2.2872Z"/><path fill="#4A80AA" d="M60.4509 13.1519a1.0532 1.0532 0 0 1-.7469-.3094l-5.8096-5.8094c-.4126-.4127-.4126-1.0814 0-1.4941.4125-.4123 1.0813-.4123 1.4939 0l5.8096 5.8094c.4126.4126.4126 1.0813 0 1.4941a1.053 1.053 0 0 1-.747.3094Z"/><path fill="#B5DCFF" d="M61.1327 49.0376 25.7619 13.36c-4.6895 10.5866-5.5038 21.9514-1.9931 31.7515 9.6955 8.7458 24.1788 10.0888 37.5121 4.5911l-.1482-.665Z"/><path fill="#8BCAFF" d="m25.9502 13.55-8.1039-8.1743-.8122.0801c-5.7096 13.8473-4.0424 28.9359 5.6342 38.6126a29.4378 29.4378 0 0 0 1.817 1.6699c-4.0791-9.7885-3.4162-21.4306 1.4649-32.1883Z"/><path fill="#DBEDFF" d="M64.365 46.5017 28.4914 10.6282c-.353.0544-.6929.2149-.9647.4867l-1.5603 1.5605c-.3351.3351-.5018.7727-.5066 1.212L61.2196 49.647c.5317.5317 1.3937.5317 1.9254 0l1.2201-1.2199c.5316-.5316.5316-1.3937-.0001-1.9254Z"/><path fill="#B5DCFF" d="m26.0203 12.7021 1.5278-1.5278a1.6962 1.6962 0 0 1 1.0034-.4861l-8.3163-8.3163c-.5317-.5317-1.3937-.5317-1.9256 0l-1.22 1.22c-.5317.5318-.5317 1.3938 0 1.9255l8.4332 8.4332c-.0111-.4506.1536-.9047.4975-1.2485Z"/></svg>